<svg width="236" height="44" viewBox="0 0 236 44" fill="none" xmlns="http://www.w3.org/2000/svg">
<g clip-path="url(#clip0_407_23351)">
<path d="M43.9165 22C43.9165 34.1483 34.0835 44 21.9582 44C9.83303 44 0 34.1483 0 22C0 9.85173 9.83303 0 21.9582 0C34.0835 0 43.9165 9.85173 43.9165 22Z" fill="white"/>
<path d="M32.2602 20.4639C28.7708 18.0869 24.3032 19.0524 21.9526 22.6288C19.9963 25.6129 17.0398 25.9859 15.901 25.9859C12.1634 25.9859 9.61574 23.3529 8.85654 20.6322C8.85654 20.6322 8.84194 20.581 8.83464 20.5517C8.82734 20.5225 8.82004 20.4932 8.81274 20.4639C8.51345 19.323 8.44045 18.7891 8.44045 17.5823C8.44045 11.0803 15.1053 3.83229 24.6974 3.83229C34.2896 3.83229 40.1514 11.329 41.6041 15.4979C41.5749 15.4174 41.553 15.3516 41.5311 15.2784C38.7352 7.12351 31.0265 1.26514 21.938 1.26514C10.5209 1.26514 1.25 10.5464 1.25 21.9998C1.25 32.2392 8.61564 40.9939 18.8429 40.9939C26.9896 40.9939 32.4719 36.4154 34.9831 30.1036C36.3627 26.6514 35.3845 22.5923 32.2602 20.4639Z" fill="#003763"/>
<path d="M41.7253 15.893C40.5135 11.8265 34.8487 3.8252 24.6945 3.8252C15.1024 3.8252 8.4375 11.0732 8.4375 17.5752C8.4375 18.782 8.5105 19.3232 8.8098 20.4568C8.6857 19.9595 8.62 19.4622 8.62 18.9795C8.62 12.1995 15.3871 7.51137 22.3512 7.51137C31.7754 7.51137 39.4185 15.1616 39.4185 24.6038C39.4185 32.0054 35.1699 38.4123 28.9942 41.4914C36.9584 38.6098 42.6377 30.9668 42.6377 21.9927C42.6377 19.8717 42.3531 17.9994 41.7326 15.893" fill="#E4022D"/>
<path d="M66.5261 27.6392V29.8114H53.8242V27.6392H57.8173V21.203H60.2263V27.6392H66.5188H66.5261ZM62.9127 25.3499V15.3958H54.5542V13.2455H65.2997V25.3499H62.9127ZM70.4535 31.7715H68.0226V12.1704H70.4535V20.435H72.9501V22.7462H70.4535V31.7788V31.7715Z" fill="#575756"/>
<path d="M85.6721 13.3991V15.5054H74.2695V13.3991H78.7444V11.7754H81.314V13.3991H85.6794H85.6721ZM75.0798 25.0866H90.4754V31.5886H88.0591V27.2368H75.0725V25.0792L75.0798 25.0866ZM84.5552 20.0546C84.5552 20.6251 84.4311 21.1663 84.1902 21.6783C83.9493 22.1903 83.6281 22.6364 83.2339 23.0167C82.8105 23.3824 82.3287 23.6823 81.7885 23.909C81.2483 24.1358 80.6643 24.2455 80.0365 24.2455C79.4087 24.2455 78.8174 24.1358 78.2699 23.909C77.7224 23.6823 77.2406 23.3824 76.8318 23.0167C76.423 22.6364 76.0945 22.1903 75.8536 21.6783C75.6127 21.1663 75.4886 20.6251 75.4886 20.0546C75.4886 19.4842 75.6127 18.9429 75.8536 18.4383C76.0945 17.9336 76.423 17.4875 76.8318 17.1072C77.2406 16.7415 77.7224 16.4416 78.2699 16.2149C78.8174 15.9882 79.4087 15.8784 80.0365 15.8784C80.6643 15.8784 81.2483 15.9955 81.7885 16.2149C82.3287 16.4416 82.8105 16.7415 83.2339 17.1072C83.6281 17.4875 83.9493 17.9336 84.1902 18.4383C84.4311 18.9429 84.5552 19.4842 84.5552 20.0546ZM82.2265 20.0327C82.2265 19.4476 82.0075 18.9429 81.5768 18.5261C81.1461 18.1092 80.6278 17.8971 80.0292 17.8971C79.4306 17.8971 78.9196 18.1092 78.4962 18.5261C78.0728 18.9429 77.8611 19.4476 77.8611 20.0327C77.8611 20.6178 78.0728 21.1225 78.4962 21.5467C78.9196 21.9709 79.4306 22.183 80.0292 22.183C80.6278 22.183 81.1461 21.9709 81.5768 21.5467C82.0075 21.1225 82.2265 20.6178 82.2265 20.0327ZM90.4754 23.9895H88.0591V12.1703H90.4754V16.7634H93.2859V19.1624H90.4754V23.9968V23.9895Z" fill="#575756"/>
<path d="M104.928 29.197H102.497V15.5713H95V13.3772H104.935V29.197H104.928ZM109.819 12.1704H112.25V31.7715H109.819V12.1704Z" fill="#575756"/>
<path d="M123.353 23.2874V21.7734H115.586V19.7768H133.573V21.7734H125.784V23.2874H132.12V28.2535H119.418V29.4383H132.383V31.435H117.031V26.3373H129.711V25.2182H117.031V23.2874H123.346H123.353ZM124.579 14.4742L117.739 19.3306L116.294 17.6411L124.587 11.7974L132.88 17.6411L131.434 19.3306L124.594 14.4742H124.579Z" fill="#575756"/>
<path d="M136.006 14.8253V12.7409H147.234V14.8253H142.452L147.431 20.9104L145.744 22.3147L141.708 17.2828L137.736 22.6438L135.984 21.2396L140.963 14.8253H136.006ZM151.562 27.5953C151.562 28.2535 151.424 28.8752 151.154 29.453C150.884 30.0308 150.519 30.5428 150.066 30.9816C149.613 31.4204 149.073 31.7715 148.453 32.0275C147.832 32.2834 147.168 32.4151 146.467 32.4151C145.766 32.4151 145.124 32.2908 144.496 32.0275C143.868 31.7642 143.328 31.4204 142.876 30.9816C142.423 30.5428 142.058 30.0308 141.788 29.453C141.518 28.8752 141.379 28.2535 141.379 27.5953C141.379 26.937 141.518 26.3154 141.788 25.7376C142.058 25.1598 142.423 24.6478 142.876 24.209C143.328 23.7701 143.868 23.4191 144.496 23.1631C145.124 22.9071 145.781 22.7755 146.467 22.7755C147.153 22.7755 147.832 22.9071 148.453 23.1631C149.073 23.4191 149.613 23.7701 150.066 24.209C150.519 24.6478 150.884 25.1598 151.154 25.7376C151.424 26.3154 151.562 26.937 151.562 27.5953ZM149.168 27.5733C149.168 26.842 148.898 26.213 148.365 25.6864C147.832 25.1598 147.19 24.8965 146.445 24.8965C145.701 24.8965 145.087 25.1598 144.562 25.6864C144.036 26.213 143.773 26.842 143.773 27.5733C143.773 28.3047 144.036 28.9556 144.562 29.4749C145.087 29.9942 145.715 30.2575 146.445 30.2575C147.175 30.2575 147.832 29.9942 148.365 29.4749C148.898 28.9556 149.168 28.3193 149.168 27.5733ZM150.789 22.5634V18.3213H147.146V16.215H150.789V12.1704H153.22V22.5634H150.789Z" fill="#575756"/>
<path d="M170.68 16.0099V12.9966H173.089V24.2014H166.753V28.1582H174.542V30.3084H156.555V28.1582H164.322V24.2014H158.007V12.9966H160.394V16.0099H170.68ZM170.68 22.0804V18.1236H160.394V22.0804H170.68Z" fill="#575756"/>
<path d="M178.492 20.3178V12.3604H193.559V14.3351H180.901V15.3663H193.472V17.2752H180.901V18.3723H193.625V20.3032H187.245V21.5538H195.034V23.5505H177.047V21.5538H184.814V20.3032H178.5L178.492 20.3178ZM190.822 28.3191C190.822 28.9042 190.698 29.4601 190.457 29.9794C190.216 30.4987 189.88 30.9594 189.457 31.3544C189.004 31.7493 188.486 32.0638 187.909 32.2979C187.333 32.5319 186.705 32.6489 186.033 32.6489C185.362 32.6489 184.756 32.5319 184.172 32.2979C183.588 32.0638 183.077 31.7493 182.639 31.3544C182.201 30.9594 181.858 30.4987 181.617 29.9794C181.376 29.4601 181.252 28.9042 181.252 28.3191C181.252 27.734 181.376 27.1635 181.617 26.6516C181.858 26.1396 182.201 25.6788 182.639 25.2693C183.077 24.8743 183.588 24.5598 184.172 24.3331C184.756 24.1064 185.376 23.9893 186.033 23.9893C186.69 23.9893 187.333 24.1064 187.909 24.3331C188.486 24.5598 189.004 24.8743 189.457 25.2693C189.88 25.6788 190.216 26.1396 190.457 26.6516C190.698 27.1635 190.822 27.7194 190.822 28.3191ZM188.406 28.2972C188.406 27.6536 188.172 27.105 187.705 26.6516C187.238 26.1981 186.683 25.9714 186.04 25.9714C185.398 25.9714 184.836 26.1981 184.361 26.6516C183.887 27.105 183.646 27.6536 183.646 28.2972C183.646 28.9408 183.887 29.4967 184.361 29.9574C184.836 30.4182 185.398 30.6522 186.04 30.6522C186.683 30.6522 187.238 30.4182 187.705 29.9574C188.172 29.4967 188.406 28.9408 188.406 28.2972Z" fill="#575756"/>
<path d="M203.406 12.0605L209.567 22.0586L207.596 23.2873L203.406 16.2587L199.237 23.4409L197.223 22.2121L203.406 12.0605ZM198.821 31.3691V24.8232H201.23V29.2188H214.852V31.3691H198.821ZM212.246 24.7135V12.1629H214.677V24.7135H212.246Z" fill="#575756"/>
<path d="M218.012 24.56H235.999V26.7103H228.21V31.7641H225.779V26.7103H218.012V24.56ZM221.851 14.9789H232.137V12.4995H234.546V21.927H219.457V12.4995H221.844V14.9789H221.851ZM232.137 17.0926H221.851V19.7987H232.137V17.0926Z" fill="#575756"/>
</g>
<defs>
<clipPath id="clip0_407_23351">
<rect width="236" height="44" fill="white"/>
</clipPath>
</defs>
</svg>
