<svg xmlns="http://www.w3.org/2000/svg" width="534.05127mm" height="61.843784mm" viewBox="0 0 534.05127 61.843784"><defs><radialGradient id="a" cx="0" cy="0" r="1" fx="0" fy="0" gradientTransform="matrix(20.07915 0 0 -20.07913 126.193 565.802)" gradientUnits="userSpaceOnUse" spreadMethod="pad"><stop offset="0" style="stop-opacity:1;stop-color:#82c1ea"/><stop offset="0.24110074" style="stop-opacity:1;stop-color:#008dcf"/><stop offset="0.275284" style="stop-opacity:1;stop-color:#008dcf"/><stop offset="1" style="stop-opacity:1;stop-color:#00358c"/></radialGradient></defs><path d="M128.044 564.406v-11.324c0-1.081.305-7.147 7.488-9.588 7.184 2.441 7.494 8.507 7.494 9.588v11.324z" style="fill:url(#a);stroke:none" transform="matrix(2.39062 0 0 -2.39062 -109.576 1349.278)"/><path d="m0 0 2.242 2.266L4.463.045h2.938V6.48h1.926v2.346H7.401v.694h1.926v2.156H7.335v2.763H1.143v-2.136H4.92V3.025L2.232 5.688l-3.957-3.959Z" style="fill:#fff;fill-opacity:1;fill-rule:nonzero;stroke:none" transform="matrix(2.39062 0 0 -2.39062 205.898 39.725)"/><path d="M0 0h-4.555v-13.715c0-3.517-.596-5.305-3.855-5.305-3.14 0-3.754 1.944-3.754 5.305V0h-4.721v-13.941c0-3.95 1.028-7.606 8.475-7.606 7.537 0 8.575 3.656 8.575 7.606V0Z" style="fill:#00358c;fill-opacity:1;fill-rule:nonzero;stroke:none" transform="matrix(2.39062 0 0 -2.39062 136.977 10.332)"/><path d="M0 0h4.722v21.213H0v-8.787h-7.709v8.787h-4.722V0h4.722v9.506H0Z" style="fill:#008dcf;fill-opacity:1;fill-rule:nonzero;stroke:none" transform="matrix(2.39062 0 0 -2.39062 174.813 61.044)"/><path d="M0 0v-14.24L-8.27 0h-5.058v-21.213h4.394l-.002 14.996c.582-1.006 8.707-14.996 8.707-14.996h4.622V0h-.166Z" style="fill:#00358c;fill-opacity:1;fill-rule:nonzero;stroke:none" transform="matrix(2.39062 0 0 -2.39062 78.276 10.332)"/><path d="M0 0c-2.707 1.176-5.047 2.191-5.047 3.914 0 1.197 1.318 2.014 3.28 2 3.14-.021 6.226-1.119 7.179-1.512l.265-.107v3.674l-.087.013c-.904.141-3.884.627-6.692.627-5.49 0-8.768-2.072-8.768-5.545C-9.87-.604-6.221-2.27-3-3.738-.336-4.955 2.177-6.1 2.177-8.18c0-2.232-3.406-2.324-3.795-2.324-2.175 0-4.65.654-7.567 2.149l-.278.142v-4.082l.324-.074c1.055-.246 3.854-.901 6.746-.901 6.387 0 9.762 2.202 9.762 6.364C7.369-3.201 3.455-1.5 0 0" style="fill:#00358c;fill-opacity:1;fill-rule:nonzero;stroke:none" transform="matrix(2.39062 0 0 -2.39062 23.595 30.12)"/><path d="M0 0v-1.395h5.894v-2.419H8.06v2.419h4.64V0Z" style="fill:#00358c;fill-opacity:1;fill-rule:nonzero;stroke:none" transform="matrix(2.39062 0 0 -2.39062 250.02 27.753)"/><path d="M0 0h-2.166l-.001-3.518c0-.33.284-.603.634-.603H7.362v1.392H0Z" style="fill:#00358c;fill-opacity:1;fill-rule:nonzero;stroke:none" transform="matrix(2.39062 0 0 -2.39062 259.86 33.048)"/><path d="M0 0c-.87 0-1.581.818-1.581 1.824C-1.581 2.832-.87 3.65 0 3.65c.872 0 1.578-.818 1.578-1.826C1.578.818.872 0 0 0m.003 5.094c-1.986 0-3.606-1.467-3.606-3.27s1.62-3.267 3.606-3.267c1.99 0 3.609 1.464 3.609 3.267S1.993 5.094.003 5.094" style="fill:#00358c;fill-opacity:1;fill-rule:nonzero;stroke:none" transform="matrix(2.39062 0 0 -2.39062 298.813 40.37)"/><path d="M154.534 556.223h4.857v-1.154h-4.857zm-1.531-2.549 8.555.004v5.937h-2.166v-2.002h-4.858v2.002h-2.165v-5.338c0-.332.283-.603.634-.603" style="fill:#00358c;fill-opacity:1;fill-rule:nonzero;stroke:none" transform="matrix(2.39062 0 0 -2.39062 -109.576 1349.278)"/><path d="M0 0h-2.167v-4.652c-1.483-.655-3.079-.752-3.902-.746h-2.167v3.537h4.683v1.39h-6.851l-.002-5.713c0-.332.287-.603.635-.603l3.711-.004c1.54.023 2.839.271 3.893.73v-1.703H0v3.494h2.098v1.393H0Z" style="fill:#00358c;fill-opacity:1;fill-rule:nonzero;stroke:none" transform="matrix(2.39062 0 0 -2.39062 308.573 10.328)"/><path d="M253.278 556.125h-1.709v.846h1.709zm-3.872-1.424h-2.718v1.73h2.718zm3.872 5.389v-1.729h-1.709v1.258h-2.163v-1.801h-2.718v1.801h-2.162v-5.707c0-.332.286-.603.637-.603l6.406.004v1.421h1.709v-2.097h2.163v7.453h-.085z" style="fill:#00358c;fill-opacity:1;fill-rule:nonzero;stroke:none" transform="matrix(2.39062 0 0 -2.39062 -109.576 1349.278)"/><path d="M0 0c-.871 0-1.581.818-1.581 1.82 0 1.004.71 1.821 1.581 1.821.866 0 1.573-.817 1.573-1.821C1.573.818.866 0 0 0m.003 5.082c-1.986 0-3.601-1.463-3.601-3.262 0-1.8 1.615-3.261 3.601-3.261 1.982 0 3.599 1.461 3.599 3.261 0 1.799-1.617 3.262-3.599 3.262" style="fill:#00358c;fill-opacity:1;fill-rule:nonzero;stroke:none" transform="matrix(2.39062 0 0 -2.39062 491.341 40.3)"/><path d="M0 0v-4.197h-2.084v-1.395H0v-8.267h2.168V0Z" style="fill:#00358c;fill-opacity:1;fill-rule:nonzero;stroke:none" transform="matrix(2.39062 0 0 -2.39062 338.045 10.314)"/><path d="M0 0h-2.096v3.584h-2.167v-7.768h2.167v2.793H0Z" style="fill:#00358c;fill-opacity:1;fill-rule:nonzero;stroke:none" transform="matrix(2.39062 0 0 -2.39062 442.154 18.882)"/><path d="M0 0h2.167v7.641H-7.43V6.25H0Z" style="fill:#00358c;fill-opacity:1;fill-rule:nonzero;stroke:none" transform="matrix(2.39062 0 0 -2.39062 464.117 30.447)"/><path d="M0 0h-2.166v-4.936h-.818V0h-2.168v-4.936h-3.336v-1.392H4.425v1.392H0Z" style="fill:#00358c;fill-opacity:1;fill-rule:nonzero;stroke:none" transform="matrix(2.39062 0 0 -2.39062 462.03 24.209)"/><path d="M0 0v-1.395h6.229v-3.748h2.167V0Z" style="fill:#00358c;fill-opacity:1;fill-rule:nonzero;stroke:none" transform="matrix(2.39062 0 0 -2.39062 417.071 31.152)"/><path d="M0 0c0 1.021.653 1.859 1.452 1.859C2.253 1.859 2.9 1.021 2.9 0c0-1.029-.647-1.861-1.448-1.861C.653-1.861 0-1.029 0 0m4.959-.002c0 .715-.261 1.375-.698 1.908h1.593v1.391H2.571v1.74H.401v-1.74H-2.88V1.906h1.526a2.996 2.996 0 0 1-.702-1.908c0-1.764 1.576-3.201 3.51-3.201 1.933 0 3.505 1.437 3.505 3.201" style="fill:#00358c;fill-opacity:1;fill-rule:nonzero;stroke:none" transform="matrix(2.39062 0 0 -2.39062 416.695 21.165)"/><path d="M0 0c-.287.916-.303 2.447-.303 2.459v1.203h-2.301V2.459c0-.012-.018-1.543-.305-2.459-.493-1.697-1.549-3.225-3.143-4.541l-.075-.064 1.066-.967.055.039C-3.429-4.418-2.238-3.15-1.455-1.77-.672-3.15.52-4.418 2.095-5.533l.057-.039 1.063.967-.072.064C1.548-3.223.49-1.695 0 0" style="fill:#00358c;fill-opacity:1;fill-rule:nonzero;stroke:none" transform="matrix(2.39062 0 0 -2.39062 328.665 20.338)"/><path d="M0 0v-4.197h-.655V0h-2.167v-6.412c-1.416-.567-2.889-.651-3.659-.647H-6.7v5.196h2.836v1.394h-5.005v-7.375c0-.334.285-.601.635-.601l1.763-.004c1.421.019 2.641.236 3.649.629v-6.039h2.167v8.267H0v-8.267h2.167V0Z" style="fill:#00358c;fill-opacity:1;fill-rule:nonzero;stroke:none" transform="matrix(2.39062 0 0 -2.39062 400.962 10.314)"/><path d="M0 0v-1.393h5.445v-.88H1.764v-1.395h7.125v-.666H1.764v-2.85a.62.62 0 0 1 .632-.605h8.895v1.394H4.159v.666h7.134v3.456H7.61v.88h5.447V0Z" style="fill:#00358c;fill-opacity:1;fill-rule:nonzero;stroke:none" transform="matrix(2.39062 0 0 -2.39062 346.114 24.825)"/><path d="M0 0c.996 0 1.805-.869 1.805-1.932 0-1.07-.809-1.937-1.805-1.937-.994 0-1.808.867-1.808 1.937C-1.808-.869-.994 0 0 0m0-5.215c2.301 0 4.172 1.475 4.172 3.283C4.172-.127 2.301 1.346 0 1.346c-2.303 0-4.176-1.473-4.176-3.278 0-1.808 1.873-3.283 4.176-3.283" style="fill:#00358c;fill-opacity:1;fill-rule:nonzero;stroke:none" transform="matrix(2.39062 0 0 -2.39062 361.723 11.574)"/><path d="M0 0v-6.307h-9.562v-1.392h2.87v-1.317h2.168v1.317H0v-.567h-2.027V-9.66H0v-1.285h2.169V0Z" style="fill:#00358c;fill-opacity:1;fill-rule:nonzero;stroke:none" transform="matrix(2.39062 0 0 -2.39062 528.027 10.318)"/><path d="M0 0h-2.169v-3.629c0-.328.286-.6.637-.6h8.225v1.395H0Z" style="fill:#00358c;fill-opacity:1;fill-rule:nonzero;stroke:none" transform="matrix(2.39062 0 0 -2.39062 517.21 33.36)"/><path d="M0 0c.83 0 1.502-.836 1.502-1.863C1.502-2.889.83-3.725 0-3.725c-.824 0-1.5.836-1.5 1.862C-1.5-.836-.824 0 0 0m-.004-5.119c1.986 0 3.598 1.461 3.598 3.256 0 1.797-1.612 3.259-3.598 3.259-1.976 0-3.591-1.462-3.591-3.259 0-1.795 1.615-3.256 3.591-3.256" style="fill:#00358c;fill-opacity:1;fill-rule:nonzero;stroke:none" transform="matrix(2.39062 0 0 -2.39062 515.805 12.503)"/><path d="M0 0c-.107.062-.49.24-.846.24-.245 0-.419-.143-.419-.363 0-.69 1.5-.731 1.5-1.827 0-.767-.498-1.049-1.157-1.049-.369 0-.721.123-.832.159v.624c.235-.169.578-.378.926-.378.195 0 .48.097.48.429 0 .799-1.455.783-1.455 1.899 0 .568.373.911 1.037.911.326 0 .65-.072.766-.098z" style="fill:#00358c;fill-opacity:1;fill-rule:nonzero;stroke:none" transform="matrix(2.39062 0 0 -2.39062 258.095 53.973)"/><path d="M0 0h1.794v-.404H.583v-1.085h1.148v-.404H.583v-1.213h1.251v-.425H0Z" style="fill:#00358c;fill-opacity:1;fill-rule:nonzero;stroke:none" transform="matrix(2.39062 0 0 -2.39062 260.852 52.566)"/><path d="M0 0c.899 0 1.282.742 1.282 1.822C1.282 2.901.899 3.643 0 3.643c-.903 0-1.282-.742-1.282-1.821C-1.282.742-.903 0 0 0m-.668 1.822c0 .89.183 1.484.668 1.484.485 0 .668-.594.668-1.484C.668.931.485.337 0 .337c-.485 0-.668.594-.668 1.485" style="fill:#00358c;fill-opacity:1;fill-rule:nonzero;stroke:none" transform="matrix(2.39062 0 0 -2.39062 270.29 61.14)"/><path d="M0 0c0-.629-.116-1.259-1.118-1.259-.988 0-1.104.63-1.104 1.259v2.328h.583V0c0-.553.076-.921.521-.921.472 0 .534.368.534.921v2.328H0Z" style="fill:#00358c;fill-opacity:1;fill-rule:nonzero;stroke:none" transform="matrix(2.39062 0 0 -2.39062 280.988 58.132)"/><path d="M0 0h.583v-3.106h1.148v-.425H0Z" style="fill:#00358c;fill-opacity:1;fill-rule:nonzero;stroke:none" transform="matrix(2.39062 0 0 -2.39062 283.605 52.566)"/><path d="M0 0h.637l1.188-2.62h.009V0h.477v-3.531h-.58L.485-.783H.477v-2.748H0Z" style="fill:#00358c;fill-opacity:1;fill-rule:nonzero;stroke:none" transform="matrix(2.39062 0 0 -2.39062 293.97 52.566)"/><path d="M0 0h.517l.276 1.003h1.046L2.105 0h.62L1.656 3.531H1.06Zm1.318 2.937h.009l.414-1.561H.896Z" style="fill:#00358c;fill-opacity:1;fill-rule:nonzero;stroke:none" transform="matrix(2.39062 0 0 -2.39062 301.42 61.007)"/><path d="M0 0h-.739v.404h2.061V0H.583v-3.126H0Z" style="fill:#00358c;fill-opacity:1;fill-rule:nonzero;stroke:none" transform="matrix(2.39062 0 0 -2.39062 310.64 53.533)"/><path d="M177.9 542.417h.584v-3.531h-.584Z" style="fill:#00358c;fill-opacity:1;fill-rule:nonzero;stroke:none" transform="matrix(2.39062 0 0 -2.39062 -109.576 1349.278)"/><path d="M0 0c.899 0 1.282.742 1.282 1.822C1.282 2.901.899 3.643 0 3.643c-.903 0-1.282-.742-1.282-1.821C-1.282.742-.903 0 0 0m-.667 1.822c0 .89.183 1.484.667 1.484.485 0 .668-.594.668-1.484C.668.931.485.337 0 .337c-.484 0-.667.594-.667 1.485" style="fill:#00358c;fill-opacity:1;fill-rule:nonzero;stroke:none" transform="matrix(2.39062 0 0 -2.39062 322.59 61.14)"/><path d="M0 0h.636l1.189-2.62h.009V0h.477v-3.531h-.58L.484-.783H.476v-2.748H0Z" style="fill:#00358c;fill-opacity:1;fill-rule:nonzero;stroke:none" transform="matrix(2.39062 0 0 -2.39062 328.062 52.566)"/><path d="M0 0h.846L.432 1.561H.423Zm.165 2.154h.596l1.069-3.53h-.619L.943-.374H-.103l-.276-1.002h-.516z" style="fill:#00358c;fill-opacity:1;fill-rule:nonzero;stroke:none" transform="matrix(2.39062 0 0 -2.39062 337.65 57.716)"/><path d="M0 0h.583v-3.106h1.148v-.425H0Z" style="fill:#00358c;fill-opacity:1;fill-rule:nonzero;stroke:none" transform="matrix(2.39062 0 0 -2.39062 343.952 52.566)"/><path d="M0 0c0-.629-.115-1.259-1.117-1.259-.988 0-1.105.63-1.105 1.259v2.328h.584V0c0-.553.075-.921.521-.921.471 0 .534.368.534.921v2.328H0Z" style="fill:#00358c;fill-opacity:1;fill-rule:nonzero;stroke:none" transform="matrix(2.39062 0 0 -2.39062 359.542 58.132)"/><path d="M0 0h.637l1.188-2.62h.009V0h.477v-3.531h-.58L.484-.783H.476v-2.748H0Z" style="fill:#00358c;fill-opacity:1;fill-rule:nonzero;stroke:none" transform="matrix(2.39062 0 0 -2.39062 362.161 52.566)"/><path d="M200.77 538.887h.584v3.531h-.584z" style="fill:#00358c;fill-opacity:1;fill-rule:nonzero;stroke:none" transform="matrix(2.39062 0 0 -2.39062 -109.576 1349.278)"/><path d="M0 0h.605l.785-2.722h.008L2.195 0h.517L1.647-3.531h-.6z" style="fill:#00358c;fill-opacity:1;fill-rule:nonzero;stroke:none" transform="matrix(2.39062 0 0 -2.39062 373.526 52.566)"/><path d="M0 0h1.834v.425H.583v1.213h1.148v.404H.583v1.084h1.211v.405H0Z" style="fill:#00358c;fill-opacity:1;fill-rule:nonzero;stroke:none" transform="matrix(2.39062 0 0 -2.39062 381.744 61.007)"/><path d="M0 0h.583v1.545h.183c.459 0 .543-.235.654-.88L1.531 0h.583l-.173.937c-.076.409-.138.747-.592.844v.01c.276.082.641.271.641.819 0 .803-.61.921-1.291.921H0Zm.583 3.157h.116c.361 0 .707-.035.707-.598 0-.517-.293-.64-.707-.64H.583Z" style="fill:#00358c;fill-opacity:1;fill-rule:nonzero;stroke:none" transform="matrix(2.39062 0 0 -2.39062 388.416 61.007)"/><path d="M0 0c-.106.062-.489.24-.846.24-.244 0-.418-.143-.418-.363 0-.69 1.5-.731 1.5-1.827 0-.767-.499-1.049-1.157-1.049-.37 0-.722.123-.833.159v.624c.236-.169.579-.378.927-.378.195 0 .48.097.48.429 0 .799-1.456.783-1.456 1.899 0 .568.374.911 1.037.911.326 0 .651-.072.766-.098z" style="fill:#00358c;fill-opacity:1;fill-rule:nonzero;stroke:none" transform="matrix(2.39062 0 0 -2.39062 399.569 53.973)"/><path d="M214.13 542.417h.583v-3.531h-.583z" style="fill:#00358c;fill-opacity:1;fill-rule:nonzero;stroke:none" transform="matrix(2.39062 0 0 -2.39062 -109.576 1349.278)"/><path d="M0 0h-.739v.404h2.061V0H.583v-3.126H0Z" style="fill:#00358c;fill-opacity:1;fill-rule:nonzero;stroke:none" transform="matrix(2.39062 0 0 -2.39062 407.413 53.533)"/><path d="m0 0-.958 1.878h.673L.36.583l.668 1.295h.561L.583 0v-1.653H0Z" style="fill:#00358c;fill-opacity:1;fill-rule:nonzero;stroke:none" transform="matrix(2.39062 0 0 -2.39062 413.821 57.055)"/><path d="M0 0h.121c.383 0 .761.051.761.619 0 .481-.258.655-.761.655H0Zm0 1.647h.121c.316 0 .605.062.605.543 0 .46-.232.542-.605.542H0Zm-.583 1.459h.859c.512 0 1.034-.133 1.034-.834 0-.501-.299-.732-.539-.809v-.01c.316-.077.694-.266.694-.911 0-.905-.721-.967-1.189-.967h-.859z" style="fill:#00358c;fill-opacity:1;fill-rule:nonzero;stroke:none" transform="matrix(2.39062 0 0 -2.39062 425.037 59.991)"/><path d="M0 0c0-.629-.116-1.259-1.118-1.259-.988 0-1.104.63-1.104 1.259v2.328h.583V0c0-.553.076-.921.521-.921.472 0 .534.368.534.921v2.328H0Z" style="fill:#00358c;fill-opacity:1;fill-rule:nonzero;stroke:none" transform="matrix(2.39062 0 0 -2.39062 436.15 58.132)"/><path d="M0 0h.637l1.188-2.62h.009V0h.477v-3.531h-.58L.485-.783H.477v-2.748H0Z" style="fill:#00358c;fill-opacity:1;fill-rule:nonzero;stroke:none" transform="matrix(2.39062 0 0 -2.39062 438.766 52.566)"/><path d="M0 0h.823c.651 0 1.376.179 1.376 1.816 0 1.459-.659 1.715-1.376 1.715H0Zm.583 3.126h.24c.673 0 .762-.445.762-1.31C1.585.88 1.469.425.823.425h-.24z" style="fill:#00358c;fill-opacity:1;fill-rule:nonzero;stroke:none" transform="matrix(2.39062 0 0 -2.39062 446.993 61.007)"/><path d="M0 0h.517l.275 1.003h1.047L2.105 0h.62L1.656 3.531H1.06Zm1.317 2.937h.009l.414-1.561H.895Z" style="fill:#00358c;fill-opacity:1;fill-rule:nonzero;stroke:none" transform="matrix(2.39062 0 0 -2.39062 453.869 61.007)"/><path d="M0 0h.637l1.188-2.62h.009V0h.477v-3.531h-.58L.485-.783H.477v-2.748H0Z" style="fill:#00358c;fill-opacity:1;fill-rule:nonzero;stroke:none" transform="matrix(2.39062 0 0 -2.39062 462.308 52.566)"/><path d="M0 0a1.758 1.758 0 0 0-.993-.327c-.966 0-1.366.819-1.366 1.852 0 1.039.289 1.791 1.237 1.791.668 0 1.095-.307 1.095-.983h-.632c-.014.21-.035.646-.463.646-.623 0-.623-.927-.623-1.397 0-.85.138-1.572.801-1.572.173 0 .311.072.361.144v1.228h-.553v.425H0Z" style="fill:#00358c;fill-opacity:1;fill-rule:nonzero;stroke:none" transform="matrix(2.39062 0 0 -2.39062 475.889 60.359)"/><path d="M0 0h.583v-1.479h1.068V0h.583v-3.531h-.583v1.648H.583v-1.648H0Z" style="fill:#00358c;fill-opacity:1;fill-rule:nonzero;stroke:none" transform="matrix(2.39062 0 0 -2.39062 482.69 52.566)"/><path d="M0 0c.485 0 .668.594.668 1.484 0 .891-.183 1.484-.668 1.484-.485 0-.667-.593-.667-1.484C-.667.594-.485 0 0 0m-1.282 1.484c0 1.08.379 1.822 1.282 1.822.899 0 1.282-.742 1.282-1.822S.899-.337 0-.337c-.903 0-1.282.741-1.282 1.821" style="fill:#00358c;fill-opacity:1;fill-rule:nonzero;stroke:none" transform="matrix(2.39062 0 0 -2.39062 493.5 60.334)"/><path d="M0 0c-.106.062-.489.24-.846.24-.245 0-.419-.143-.419-.363 0-.69 1.501-.731 1.501-1.827 0-.767-.499-1.049-1.158-1.049-.369 0-.721.123-.832.159v.624c.236-.169.579-.378.926-.378.196 0 .48.097.48.429 0 .799-1.455.783-1.455 1.899 0 .568.374.911 1.037.911.326 0 .651-.072.766-.098z" style="fill:#00358c;fill-opacity:1;fill-rule:nonzero;stroke:none" transform="matrix(2.39062 0 0 -2.39062 502.867 53.973)"/><path d="M0 0h.583v1.535H.73c.486 0 1.22.082 1.22 1.018 0 .814-.508.978-1.22.978H0Zm.583 3.157H.73c.415 0 .637-.107.637-.598 0-.568-.303-.65-.637-.65H.583Z" style="fill:#00358c;fill-opacity:1;fill-rule:nonzero;stroke:none" transform="matrix(2.39062 0 0 -2.39062 505.634 61.007)"/><path d="M260.126 542.417h.584v-3.531h-.584z" style="fill:#00358c;fill-opacity:1;fill-rule:nonzero;stroke:none" transform="matrix(2.39062 0 0 -2.39062 -109.576 1349.278)"/><path d="M0 0h-.739v.404h2.06V0H.583v-3.126H0Z" style="fill:#00358c;fill-opacity:1;fill-rule:nonzero;stroke:none" transform="matrix(2.39062 0 0 -2.39062 517.374 53.533)"/><path d="M0 0h.516l.276 1.003h1.046L2.105 0h.619L1.655 3.531H1.06Zm1.317 2.937h.009l.414-1.561H.895Z" style="fill:#00358c;fill-opacity:1;fill-rule:nonzero;stroke:none" transform="matrix(2.39062 0 0 -2.39062 521.474 61.007)"/><path d="M0 0h.583v-3.106h1.148v-.425H0Z" style="fill:#00358c;fill-opacity:1;fill-rule:nonzero;stroke:none" transform="matrix(2.39062 0 0 -2.39062 529.913 52.566)"/></svg>