<?xml version="1.0" encoding="UTF-8" standalone="no"?>
<!DOCTYPE svg PUBLIC "-//W3C//DTD SVG 1.1//EN" "http://www.w3.org/Graphics/SVG/1.1/DTD/svg11.dtd">
<svg xmlns="http://www.w3.org/2000/svg" version="1.1" viewBox="0.00 0.00 180.00 180.00">
<path fill="#000000" d="
  M 123.63 44.87
  A 0.22 0.21 56.8 0 0 123.58 45.15
  C 128.70 53.25 129.38 63.17 127.32 71.82
  C 125.27 80.41 117.61 85.54 111.75 91.48
  C 110.70 92.54 110.41 93.89 110.06 95.30
  Q 109.95 95.76 110.08 96.20
  Q 111.12 99.86 114.30 102.47
  C 124.59 110.92 135.94 120.03 133.75 135.59
  C 133.32 138.59 133.09 141.58 131.90 144.32
  C 122.45 165.91 92.37 168.07 73.08 161.93
  C 62.81 158.65 56.00 150.91 55.14 140.03
  C 53.31 116.82 80.06 111.21 98.10 111.09
  A 0.59 0.59 0.0 0 0 98.68 110.41
  Q 98.12 106.70 94.91 104.60
  C 93.50 103.68 94.03 96.90 93.95 95.15
  Q 93.92 94.65 93.43 94.67
  C 70.77 95.62 59.11 80.59 63.33 59.12
  Q 63.45 58.49 62.81 58.49
  L 16.95 58.51
  A 0.34 0.33 -60.7 0 1 16.78 57.89
  L 84.96 15.28
  A 1.90 1.84 28.2 0 1 85.95 15.00
  L 162.48 15.00
  A 0.35 0.35 0.0 0 1 162.69 15.64
  L 150.92 24.43
  Q 150.50 24.74 150.50 25.26
  L 150.50 50.25
  A 0.94 0.94 0.0 0 0 150.89 51.01
  C 155.89 54.58 154.76 59.83 154.75 65.15
  Q 154.75 69.60 153.54 71.62
  C 150.29 77.09 142.25 77.15 138.95 71.87
  Q 137.53 69.60 137.50 64.70
  C 137.47 59.79 136.45 54.63 141.29 51.21
  A 1.04 1.04 0.0 0 0 141.73 50.36
  L 141.79 31.80
  A 0.26 0.26 0.0 0 0 141.38 31.59
  L 123.63 44.87
  Z
  M 100.8264 87.0075
  A 23.31 16.43 75.5 0 0 110.8967 60.3263
  A 23.31 16.43 75.5 0 0 89.1536 41.8725
  A 23.31 16.43 75.5 0 0 79.0833 68.5537
  A 23.31 16.43 75.5 0 0 100.8264 87.0075
  Z
  M 122.7248 134.1881
  A 26.70 19.73 -4.3 0 0 94.6207 116.5155
  A 26.70 19.73 -4.3 0 0 69.4752 138.1919
  A 26.70 19.73 -4.3 0 0 97.5793 155.8645
  A 26.70 19.73 -4.3 0 0 122.7248 134.1881
  Z"
/>
</svg>
