<?xml version="1.0" encoding="UTF-8" standalone="no"?>
<!DOCTYPE svg PUBLIC "-//W3C//DTD SVG 1.1//EN" "http://www.w3.org/Graphics/SVG/1.1/DTD/svg11.dtd">
<svg xmlns="http://www.w3.org/2000/svg" version="1.1" viewBox="0.00 0.00 180.00 180.00">
<path fill="#000000" d="
  M 88.07 0.00
  L 91.84 0.00
  C 139.70 2.06 176.80 37.42 180.00 85.39
  L 180.00 94.56
  C 176.50 142.35 139.75 178.46 91.69 180.00
  L 88.20 180.00
  C 40.04 178.51 3.96 142.51 0.00 94.71
  L 0.00 85.42
  C 3.60 37.75 40.04 1.60 88.07 0.00
  Z
  M 125.60 123.76
  C 125.68 110.90 115.65 106.56 108.03 98.23
  C 104.72 94.62 106.49 92.04 109.60 89.10
  C 119.65 79.62 122.14 76.24 120.23 60.74
  Q 119.90 58.04 117.23 54.60
  Q 116.85 54.10 117.35 53.72
  L 131.05 43.47
  A 0.44 0.44 0.0 0 1 131.75 43.82
  L 131.75 57.85
  A 1.27 1.25 -20.0 0 1 131.29 58.82
  C 127.32 62.15 128.25 65.80 128.25 70.44
  Q 128.25 73.65 129.23 75.36
  C 131.63 79.56 139.01 79.66 141.22 75.08
  C 143.03 71.31 142.83 61.60 138.96 58.93
  Q 138.50 58.61 138.50 58.06
  L 138.50 38.45
  Q 138.50 37.87 138.97 37.53
  L 148.03 30.78
  A 0.43 0.43 0.0 0 0 147.78 30.00
  L 87.07 30.00
  A 1.87 1.80 -60.1 0 0 86.10 30.28
  L 31.71 64.25
  A 0.29 0.29 0.0 0 0 31.86 64.78
  L 68.49 64.74
  A 0.48 0.47 -83.0 0 1 68.95 65.34
  C 66.76 73.75 68.49 83.72 75.65 89.13
  C 80.70 92.95 86.64 93.53 92.85 93.81
  Q 93.50 93.84 93.50 94.48
  L 93.50 100.35
  Q 93.50 101.00 94.01 101.41
  Q 96.19 103.13 97.09 105.80
  A 0.95 0.95 0.0 0 1 96.16 107.05
  C 86.61 106.76 72.62 109.16 66.15 116.85
  C 61.28 122.65 60.67 131.63 64.42 138.13
  C 68.37 144.99 76.17 148.24 83.93 149.32
  C 101.73 151.81 125.46 146.53 125.60 123.76
  Z"
/>
<ellipse fill="#000000" cx="0.00" cy="0.00" transform="translate(94.20,69.56) rotate(75.2)" rx="18.61" ry="13.16"/>
<ellipse fill="#000000" cx="0.00" cy="0.00" transform="translate(95.08,126.94) rotate(-4.2)" rx="21.44" ry="15.74"/>
</svg>
