<?xml version="1.0" encoding="UTF-8" standalone="no"?>
<!DOCTYPE svg PUBLIC "-//W3C//DTD SVG 1.1//EN" "http://www.w3.org/Graphics/SVG/1.1/DTD/svg11.dtd">
<svg xmlns="http://www.w3.org/2000/svg" version="1.1" viewBox="0.00 0.00 180.00 180.00">
<path fill="#000000" d="
  M 86.57 0.00
  L 90.86 0.00
  C 124.93 2.51 144.41 40.39 123.72 68.86
  C 109.44 88.51 81.38 92.65 62.24 77.62
  C 30.59 52.77 46.26 2.67 86.57 0.00
  Z"
/>
<path fill="#000000" d="
  M 134.93 180.00
  L 44.44 180.00
  C 18.70 177.47 13.21 159.95 15.18 138.01
  C 16.54 122.96 20.61 103.89 33.26 93.97
  C 39.27 89.26 52.12 84.26 59.39 88.83
  C 64.94 92.31 70.84 96.28 76.62 98.28
  Q 93.94 104.28 110.48 94.65
  C 114.65 92.22 121.39 86.91 126.16 87.06
  C 143.67 87.60 154.71 98.64 159.80 114.82
  Q 166.11 134.86 164.71 152.75
  C 163.39 169.42 151.29 178.57 134.93 180.00
  Z"
/>
</svg>
