<?xml version="1.0" encoding="UTF-8" standalone="no"?>
<!DOCTYPE svg PUBLIC "-//W3C//DTD SVG 1.1//EN" "http://www.w3.org/Graphics/SVG/1.1/DTD/svg11.dtd">
<svg xmlns="http://www.w3.org/2000/svg" version="1.1" viewBox="0.00 0.00 180.00 180.00">
<path fill="#000000" d="
  M 86.07 0.00
  L 94.05 0.00
  C 141.56 2.76 176.46 38.63 180.00 86.04
  L 180.00 94.31
  C 176.64 141.52 141.08 177.37 93.68 180.00
  L 86.19 180.00
  C 38.81 176.72 2.69 141.49 0.00 93.92
  L 0.00 86.23
  C 2.52 38.61 38.70 3.42 86.07 0.00
  Z
  M 118.0689 59.9415
  A 28.82 27.66 0.5 0 0 89.4914 32.0311
  A 28.82 27.66 0.5 0 0 60.4311 59.4385
  A 28.82 27.66 0.5 0 0 89.0086 87.3489
  A 28.82 27.66 0.5 0 0 118.0689 59.9415
  Z
  M 108.72 89.49
  C 96.63 98.79 83.09 98.03 70.89 89.38
  Q 69.01 88.05 67.20 87.89
  C 46.35 86.00 40.30 109.13 40.13 125.26
  C 39.94 142.32 50.39 147.00 64.94 147.00
  Q 89.65 146.99 114.38 147.01
  C 136.36 147.03 142.33 136.58 139.27 115.89
  C 137.15 101.55 130.74 88.57 114.41 87.52
  C 112.70 87.41 110.10 88.43 108.72 89.49
  Z"
/>
</svg>
