<?xml version="1.0" encoding="UTF-8" standalone="no"?>
<!DOCTYPE svg PUBLIC "-//W3C//DTD SVG 1.1//EN" "http://www.w3.org/Graphics/SVG/1.1/DTD/svg11.dtd">
<svg xmlns="http://www.w3.org/2000/svg" version="1.1" viewBox="0.00 0.00 180.00 180.00">
<path fill="#5cbdea" d="
  M 86.30 0.00
  L 93.55 0.00
  C 141.38 2.54 176.27 38.41 180.00 86.04
  L 180.00 93.54
  C 177.43 141.73 141.05 176.85 92.94 180.00
  L 86.19 180.00
  C 38.79 176.75 2.84 141.47 0.00 93.93
  L 0.00 86.20
  C 2.78 38.64 38.88 3.02 86.30 0.00
  Z
  M 93.41 114.95
  Q 88.05 85.39 83.05 55.72
  C 81.08 44.03 72.90 46.69 63.99 49.02
  Q 55.17 51.32 46.46 54.18
  Q 46.00 54.34 46.00 54.82
  L 46.00 60.87
  Q 46.00 61.50 46.63 61.50
  L 62.15 61.50
  Q 62.83 61.50 62.95 62.16
  L 75.54 133.02
  A 0.68 0.67 82.5 0 0 76.26 133.58
  L 91.80 132.45
  Q 92.28 132.41 92.59 132.03
  C 104.68 116.92 139.61 74.95 133.62 54.99
  C 129.65 41.74 111.75 46.93 105.35 54.92
  A 0.74 0.74 0.0 0 0 105.54 56.02
  C 111.68 59.80 117.33 64.37 116.23 72.45
  C 114.17 87.42 103.52 103.75 93.89 115.08
  Q 93.51 115.53 93.41 114.95
  Z"
/>
</svg>
