<?xml version="1.0" encoding="UTF-8" standalone="no"?>
<!DOCTYPE svg PUBLIC "-//W3C//DTD SVG 1.1//EN" "http://www.w3.org/Graphics/SVG/1.1/DTD/svg11.dtd">
<svg xmlns="http://www.w3.org/2000/svg" version="1.1" viewBox="0.00 0.00 180.00 180.00">
<path fill="#000000" d="
  M 93.38 115.32
  A 0.23 0.23 0.0 0 0 93.78 115.43
  C 101.61 106.24 122.14 76.61 115.06 64.71
  C 113.03 61.30 108.75 58.11 105.42 56.00
  A 0.61 0.61 0.0 0 1 105.27 55.10
  C 111.67 47.20 128.31 42.30 133.37 54.09
  C 141.21 72.35 104.48 117.75 92.54 132.27
  A 0.90 0.89 17.2 0 1 91.92 132.59
  L 76.36 133.69
  Q 75.71 133.74 75.60 133.10
  L 62.95 61.94
  Q 62.87 61.50 62.43 61.50
  L 46.63 61.50
  Q 46.00 61.50 46.00 60.87
  L 46.00 55.07
  Q 46.00 54.55 46.49 54.38
  Q 58.58 50.11 71.06 47.57
  C 77.46 46.26 81.49 47.94 82.69 54.49
  Q 88.29 84.93 93.38 115.32
  Z"
/>
</svg>
