<?xml version="1.0" encoding="UTF-8" standalone="no"?>
<!DOCTYPE svg PUBLIC "-//W3C//DTD SVG 1.1//EN" "http://www.w3.org/Graphics/SVG/1.1/DTD/svg11.dtd">
<svg xmlns="http://www.w3.org/2000/svg" version="1.1" viewBox="0.00 0.00 180.00 180.00">
<path fill="#000000" d="
  M 20.80 0.00
  L 159.80 0.00
  Q 177.63 3.27 180.00 21.05
  L 180.00 159.55
  Q 176.94 177.39 159.20 180.00
  L 20.69 180.00
  Q 2.70 177.18 0.00 159.19
  L 0.00 20.45
  Q 3.00 2.64 20.80 0.00
  Z
  M 93.36 115.32
  Q 88.58 87.09 83.45 58.80
  C 81.53 48.22 79.65 45.13 67.84 48.03
  Q 57.04 50.68 46.45 54.17
  Q 46.04 54.30 46.03 54.74
  L 45.93 60.59
  Q 45.92 61.52 46.84 61.51
  L 62.29 61.47
  A 0.64 0.64 0.0 0 1 62.92 62.00
  L 75.52 132.94
  A 0.81 0.80 -7.2 0 0 76.37 133.59
  L 91.79 132.45
  Q 92.29 132.42 92.61 132.02
  Q 104.60 117.05 115.61 101.35
  C 122.56 91.43 129.30 80.74 132.81 69.06
  C 135.70 59.46 135.37 47.98 122.71 47.13
  Q 112.50 46.45 105.53 54.38
  Q 104.57 55.48 105.82 56.24
  C 109.40 58.43 114.37 62.25 115.69 66.33
  C 120.02 79.71 102.00 105.53 93.71 115.41
  A 0.20 0.20 0.0 0 1 93.36 115.32
  Z"
/>
</svg>
