<?xml version="1.0" encoding="UTF-8" standalone="no"?>
<!DOCTYPE svg PUBLIC "-//W3C//DTD SVG 1.1//EN" "http://www.w3.org/Graphics/SVG/1.1/DTD/svg11.dtd">
<svg xmlns="http://www.w3.org/2000/svg" version="1.1" viewBox="0.00 0.00 180.00 180.00">
<path fill="#000000" d="
  M 86.56 0.00
  L 93.81 0.00
  C 141.31 3.06 177.25 38.74 180.00 86.31
  L 180.00 93.81
  C 176.82 141.39 141.18 177.45 93.44 180.00
  L 86.19 180.00
  C 38.24 177.21 3.18 141.19 0.00 93.19
  L 0.00 86.44
  C 2.72 38.76 38.93 2.74 86.56 0.00
  Z
  M 30.76 88.27
  A 0.66 0.63 -46.0 0 1 30.76 87.70
  Q 32.58 84.15 35.43 81.18
  Q 47.61 68.49 62.07 58.54
  C 68.36 54.21 75.66 52.80 83.05 51.92
  A 1.44 1.44 0.0 0 0 84.06 49.66
  C 82.83 47.89 81.76 47.99 79.89 47.61
  Q 68.27 45.29 59.31 51.31
  C 57.39 52.61 4.31 92.16 23.70 96.28
  C 33.96 98.46 45.30 96.20 55.62 95.11
  C 100.24 90.39 53.06 117.86 47.33 120.82
  C 41.96 123.60 17.81 132.00 14.38 124.83
  Q 14.15 124.34 13.62 124.26
  C 12.40 124.06 11.87 125.30 12.03 126.37
  Q 12.86 132.25 19.01 133.22
  C 42.45 136.90 64.54 123.07 78.06 104.82
  C 83.48 97.52 77.67 90.47 69.94 90.06
  Q 58.43 89.45 40.00 90.75
  Q 35.42 91.07 31.95 89.90
  Q 31.49 89.74 31.27 89.31
  L 30.76 88.27
  Z
  M 138.78 100.43
  Q 135.84 103.14 135.23 98.75
  Q 133.29 84.77 132.66 70.69
  C 132.52 67.39 130.39 60.14 125.50 61.91
  C 121.95 63.20 119.53 68.59 118.35 71.90
  Q 112.08 89.42 103.68 105.74
  A 1.15 1.15 0.0 0 1 101.66 105.78
  Q 100.35 103.48 99.68 101.06
  Q 95.58 86.39 92.22 71.53
  C 91.47 68.19 89.57 65.74 85.92 67.00
  A 2.46 2.45 75.5 0 0 84.30 69.76
  Q 87.76 89.06 91.29 108.19
  C 92.17 112.95 94.22 122.86 100.27 123.31
  Q 100.79 123.35 101.24 123.09
  Q 107.19 119.74 109.70 113.18
  Q 116.26 96.10 123.48 79.20
  A 1.20 1.20 0.0 0 1 125.72 79.26
  Q 126.94 82.67 126.87 86.25
  C 126.71 94.21 127.01 116.89 133.05 122.53
  Q 133.45 122.90 133.99 122.91
  C 136.37 122.95 137.80 121.83 138.90 119.63
  C 141.57 114.27 144.07 109.17 146.52 103.33
  Q 155.74 81.42 167.63 60.70
  A 0.95 0.95 0.0 0 0 166.92 59.28
  C 163.80 58.90 161.65 60.05 159.70 62.62
  Q 153.93 70.26 149.60 78.83
  Q 144.56 88.80 139.13 99.96
  A 1.55 1.52 82.3 0 1 138.78 100.43
  Z"
/>
</svg>
