<?xml version="1.0" standalone="no"?>
<!DOCTYPE svg PUBLIC "-//W3C//DTD SVG 20010904//EN"
 "http://www.w3.org/TR/2001/REC-SVG-20010904/DTD/svg10.dtd">
<svg version="1.0" xmlns="http://www.w3.org/2000/svg"
 width="354.000000pt" height="354.000000pt" viewBox="0 0 354.000000 354.000000"
 preserveAspectRatio="xMidYMid meet">
<metadata>
Created by potrace 1.16, written by Peter Selinger 2001-2019
</metadata>
<g transform="translate(0.000000,354.000000) scale(0.100000,-0.100000)"
fill="#5cbdea" stroke="none">
<path d="M1560 3500 c-537 -75 -996 -369 -1270 -815 -588 -957 -133 -2215 930
-2569 179 -60 283 -77 495 -83 281 -8 483 27 716 122 698 286 1136 990 1079
1736 -24 317 -118 589 -298 859 -93 141 -290 343 -432 443 -191 134 -441 240
-676 288 -123 24 -428 35 -544 19z m60 -159 c0 -31 4 -40 21 -44 26 -7 16 -27
-14 -27 -43 0 -67 -12 -67 -32 0 -18 5 -20 39 -14 l38 6 7 -41 c7 -46 4 -54
-19 -46 -8 4 -15 18 -15 33 0 24 -3 26 -32 20 -92 -16 -116 -18 -122 -7 -4 7
8 13 32 17 33 5 39 9 34 26 -4 17 -10 19 -52 13 -30 -4 -50 -3 -55 4 -3 6 -5
11 -3 11 2 0 41 7 88 15 47 8 86 15 88 15 1 0 2 14 2 31 l0 32 -51 -7 c-29 -4
-65 -10 -82 -13 -23 -5 -29 -3 -25 8 4 13 97 35 161 38 25 1 27 -2 27 -38z
m421 9 c10 -6 26 -24 34 -40 9 -17 22 -30 29 -30 14 0 30 55 20 71 -3 5 5 9
17 9 24 0 24 2 -7 -172 -13 -69 -19 -86 -31 -81 -10 4 -13 15 -9 37 20 110 20
116 -1 116 -11 0 -28 -9 -38 -20 -40 -44 -118 -11 -118 50 0 54 55 86 104 60z
m-886 -216 c45 -84 54 -108 44 -115 -10 -6 -18 0 -28 19 -19 37 -19 37 -38 20
-14 -13 -95 -58 -135 -76 -5 -2 -8 3 -8 11 0 8 14 20 30 27 25 10 28 15 18 27
-9 11 -9 16 3 24 9 6 18 4 26 -7 12 -16 23 -13 55 14 16 13 15 18 -12 72 -16
32 -34 61 -40 65 -6 3 -8 11 -5 16 16 24 38 0 90 -97z m1348 70 c44 -22 58
-35 51 -45 -3 -5 -16 -2 -29 7 -13 9 -29 13 -35 9 -11 -7 -54 -85 -48 -89 41
-26 60 -36 70 -36 14 0 68 91 68 115 0 13 4 14 20 5 l21 -11 -21 -34 c-12 -19
-17 -36 -11 -39 11 -7 41 31 41 51 0 16 16 17 25 3 9 -14 -105 -220 -122 -220
-19 0 -17 6 22 76 46 84 26 93 -21 10 -23 -40 -42 -62 -50 -59 -11 4 -9 13 6
43 l19 38 -22 6 c-12 3 -35 17 -52 30 l-30 25 28 53 c15 29 27 59 27 66 0 16
5 15 43 -4z m-1451 -31 c10 -9 18 -26 18 -38 0 -49 -79 -78 -107 -39 -43 58
35 126 89 77z m1308 -272 l0 -79 87 -58 c162 -108 316 -282 404 -457 275 -543
97 -1213 -412 -1549 l-79 -53 0 -72 0 -73 -545 0 -545 0 0 54 0 55 -67 35
c-310 163 -543 482 -614 841 -21 106 -18 360 5 460 83 358 282 629 594 810
l82 48 0 58 0 59 545 0 545 0 0 -79z m-1641 -22 c6 10 10 10 16 1 4 -7 -6 -25
-25 -45 -28 -29 -31 -37 -20 -50 12 -14 16 -13 42 12 l28 27 31 -31 c39 -38
31 -62 -10 -32 l-28 21 -51 -54 c-28 -29 -54 -49 -58 -45 -4 4 3 18 16 32 19
21 21 27 10 40 -12 14 -18 12 -51 -21 -62 -60 -57 -31 6 41 57 65 64 88 29
102 -10 4 -33 -12 -70 -48 -29 -29 -56 -50 -60 -46 -3 3 22 38 57 76 l63 71
33 -32 c26 -25 36 -30 42 -19z m2196 11 c13 -14 22 -17 30 -10 9 7 16 6 24 -4
9 -11 9 -15 -1 -18 -10 -4 -8 -11 5 -31 20 -31 21 -39 5 -35 -7 1 -26 -6 -41
-16 -23 -15 -32 -17 -53 -8 -45 21 -53 81 -13 102 10 6 16 17 13 25 -9 21 10
18 31 -5z m125 -135 c-15 -16 -17 -24 -8 -33 17 -17 1 -28 -21 -15 -15 9 -22
7 -39 -9 -11 -12 -25 -17 -32 -13 -9 5 5 24 41 60 41 40 57 51 67 43 10 -9 9
-15 -8 -33z m-157 -28 l55 -63 -35 -28 c-25 -20 -38 -25 -46 -17 -7 7 -3 16
17 32 l27 21 -46 53 c-25 29 -45 56 -45 59 0 18 23 -1 73 -57z m-2473 -247 c0
-13 12 -26 35 -37 19 -9 35 -23 35 -30 0 -18 -9 -17 -76 13 -33 15 -69 29 -81
33 -17 4 -20 10 -13 21 7 12 15 13 40 3 26 -10 32 -9 37 3 8 21 23 17 23 -6z
m2858 -106 c38 -91 39 -90 -54 -119 -47 -15 -58 -15 -65 -4 -5 9 -4 15 4 18 7
2 35 12 64 23 l52 19 -30 71 c-33 81 -33 81 -17 76 7 -3 28 -40 46 -84z
m-2928 37 c0 -13 8 -21 22 -23 26 -4 48 -41 41 -69 -3 -11 -17 -28 -31 -37
-23 -15 -27 -15 -53 1 -16 9 -29 12 -29 7 0 -6 -6 -10 -14 -10 -12 0 -12 6 -3
32 9 24 9 32 0 35 -23 8 -15 36 8 30 16 -4 23 1 31 24 11 33 28 39 28 10z
m2779 -30 c35 15 46 17 53 7 6 -9 -5 -19 -37 -32 -25 -11 -45 -26 -45 -33 0
-18 14 -16 60 7 22 11 40 18 40 16 0 -2 2 -11 5 -18 4 -10 -7 -19 -35 -28 -23
-7 -43 -17 -46 -21 -2 -5 2 -25 11 -45 18 -44 18 -44 3 -44 -15 0 -100 209
-91 223 3 5 13 -4 22 -21 l16 -31 44 20z m-2599 -49 c-25 -58 -32 -67 -52 -64
-13 1 -31 4 -40 5 -20 1 -22 6 -9 25 5 9 17 11 35 6 24 -6 28 -2 51 50 14 32
29 54 35 51 5 -3 -4 -35 -20 -73z m-246 -472 c58 0 96 4 104 12 9 9 12 3 11
-27 0 -22 -3 -34 -6 -27 -3 7 -23 12 -49 12 l-44 0 0 -50 0 -50 44 0 c26 0 46
5 49 13 3 6 6 -6 6 -27 1 -31 -2 -37 -11 -28 -17 17 -195 16 -201 0 -3 -7 -5
5 -5 27 0 22 2 34 5 28 3 -8 23 -13 49 -13 l44 0 0 49 0 49 -40 4 c-22 2 -45
-1 -50 -6 -7 -7 -10 2 -9 25 0 18 3 28 6 22 3 -9 32 -13 97 -13z m3106 -4 c0
-2 -8 -2 -18 1 -13 3 -27 -7 -46 -31 -15 -20 -35 -36 -45 -36 -21 0 -48 27
-37 37 3 3 6 1 6 -5 0 -23 32 -11 65 24 29 30 37 34 54 24 12 -6 21 -12 21
-14z m-130 0 c0 -3 -4 -8 -10 -11 -5 -3 -10 -1 -10 4 0 6 5 11 10 11 6 0 10
-2 10 -4z m130 -51 c-7 -8 -18 -15 -24 -15 -6 0 -3 5 7 11 9 5 17 18 18 27 0
11 2 12 6 4 3 -7 -1 -19 -7 -27z m6 -72 c-3 -8 -6 -30 -6 -48 l0 -33 -37 9
c-55 12 -101 11 -106 -3 -3 -7 -6 11 -6 40 -1 43 2 52 17 51 10 0 12 -3 5 -6
-7 -2 -13 -16 -13 -29 0 -20 5 -24 30 -24 23 0 30 5 30 19 0 11 -6 22 -12 24
-7 3 -3 6 8 6 17 1 20 -4 16 -24 -4 -22 -1 -25 28 -25 31 0 32 2 28 34 -3 25
0 32 10 29 7 -3 11 -12 8 -20z m-3141 -109 c45 -7 47 -8 20 -14 -16 -3 -31 -2
-33 2 -2 4 -17 8 -33 8 -20 0 -29 5 -29 16 0 12 3 14 13 6 6 -5 35 -14 62 -18z
m3053 -24 c31 -4 62 -4 68 1 7 6 9 -1 6 -22 -3 -21 -7 -27 -13 -18 -5 8 -31
13 -73 14 -62 0 -66 1 -66 23 0 14 4 21 11 17 5 -4 36 -10 67 -15z m-2968 0
c0 -8 -88 -54 -140 -73 -3 -1 -6 5 -8 13 -2 10 6 16 20 17 12 1 27 8 33 16 5
8 15 12 20 10 6 -2 20 3 30 12 23 17 45 19 45 5z m2974 -80 c37 -14 49 -44 41
-101 -5 -36 -10 -47 -18 -41 -18 14 -115 35 -127 27 -27 -17 4 90 33 110 25
18 37 18 71 5z m-2980 -62 c-16 -18 -38 -43 -48 -56 l-19 -22 34 5 c22 3 17 0
-16 -10 -27 -8 -51 -12 -53 -10 -3 2 16 28 42 56 26 28 45 54 42 56 -7 7 -90
-18 -97 -29 -3 -5 -9 0 -12 12 -4 16 -2 20 8 16 20 -7 125 16 125 28 0 6 5 5
12 -2 9 -9 5 -19 -18 -44z m46 -62 c0 -9 -7 -12 -21 -9 -16 4 -17 8 -7 14 19
13 28 11 28 -5z m2856 -52 c83 -28 103 -59 66 -105 l-19 -22 -66 19 c-37 10
-67 21 -67 24 0 11 20 34 20 24 0 -6 26 -18 57 -28 55 -18 57 -17 70 0 7 10
13 24 13 31 0 16 -74 52 -107 53 -13 0 -23 5 -23 10 0 13 -2 13 56 -6z m-2833
-24 c3 -12 1 -18 -5 -14 -14 9 -128 -27 -128 -40 0 -10 -20 13 -20 24 0 3 29
14 65 24 36 10 65 23 65 28 0 16 17 -1 23 -22z m-33 -41 c12 -8 11 -9 -5 -5
-16 5 -26 -4 -50 -41 -22 -35 -31 -43 -33 -30 -4 20 43 87 61 87 7 0 19 -5 27
-11z m53 -18 c4 -17 2 -18 -14 -8 -13 8 -15 13 -6 19 7 4 13 8 13 8 1 0 4 -9
7 -19z m2731 -40 c3 -5 -1 -11 -9 -15 -8 -3 -15 -10 -15 -15 0 -11 70 -50 107
-60 15 -4 20 -10 15 -19 -6 -9 -24 -5 -73 19 -35 17 -65 32 -66 33 -2 1 3 17
9 34 13 32 22 39 32 23z m-2706 -34 c-1 -1 -29 -15 -60 -30 -60 -28 -69 -44
-42 -71 19 -20 16 -20 75 5 30 13 49 28 49 38 0 14 2 14 10 1 13 -20 12 -30
-2 -30 -7 0 -36 -10 -65 -22 -51 -21 -53 -21 -73 -3 -11 10 -20 31 -20 46 0
24 8 33 53 55 28 15 54 31 56 37 2 5 8 2 13 -7 6 -10 8 -18 6 -19z m2662 -58
c0 -11 -4 -18 -10 -14 -5 3 -7 12 -3 20 7 21 13 19 13 -6z m-77 -17 c-41 -6
-39 -57 2 -68 13 -3 37 1 53 10 42 21 61 20 89 -6 28 -26 29 -48 5 -79 -14
-17 -24 -20 -38 -14 -17 8 -16 9 8 12 31 5 42 26 28 54 -13 23 -46 24 -87 4
-61 -30 -124 26 -89 79 11 18 21 23 34 18 15 -6 14 -7 -5 -10z m-2536 -90
l-32 -15 35 -8 c19 -4 37 -6 41 -3 4 2 12 -2 18 -10 10 -12 6 -12 -29 -4 -48
12 -53 9 -73 -52 -12 -36 -17 -41 -23 -27 -4 11 0 33 10 53 21 45 21 46 -9 32
-14 -6 -25 -18 -25 -27 0 -11 -3 -10 -15 5 -18 24 -19 31 -2 31 20 0 107 54
107 66 0 7 7 3 15 -7 14 -18 13 -21 -18 -34z m194 -108 c13 -14 17 -23 8 -19
-22 8 -139 -100 -139 -130 0 -26 24 -55 45 -55 17 0 105 70 133 105 l21 26 11
-22 c9 -16 9 -20 1 -14 -7 4 -35 -13 -64 -38 -54 -46 -88 -67 -107 -67 -21 0
-60 49 -60 75 0 26 14 44 93 113 21 18 35 37 32 42 -11 18 1 10 26 -16z m2366
-57 c18 -12 33 -25 33 -29 0 -3 -35 -4 -77 -1 l-78 5 25 -22 c14 -12 37 -27
52 -33 24 -11 25 -14 12 -32 -12 -16 -14 -16 -14 -3 0 18 -79 88 -99 88 -7 0
-9 5 -6 10 3 6 38 10 77 10 l72 0 -40 29 c-21 16 -42 27 -46 25 -4 -3 -5 2 -2
10 5 12 11 11 32 -10 15 -13 42 -35 59 -47z m-190 -80 c-51 -17 -43 -83 15
-113 35 -18 43 -18 63 2 12 12 13 19 4 30 -6 8 -18 14 -27 14 -12 0 -12 4 4
21 13 15 20 17 23 7 2 -7 10 -20 17 -29 12 -14 11 -19 -10 -42 -50 -54 -136
-21 -136 50 0 37 43 88 63 76 6 -4 -1 -11 -16 -16z m-2102 -75 c-2 -15 -6 -45
-9 -66 l-5 -39 35 34 c20 19 32 39 29 48 -4 11 -3 11 9 2 13 -11 12 -16 -10
-34 -13 -12 -38 -38 -55 -57 l-30 -35 6 78 6 78 -36 -40 c-20 -22 -34 -45 -30
-51 10 -17 -1 -11 -20 10 -15 17 -16 20 -3 15 17 -7 95 78 90 98 -2 6 3 5 12
-2 9 -8 14 -23 11 -39z m2000 -22 c-3 -5 16 -32 43 -60 32 -33 45 -53 38 -60
-12 -12 -29 -14 -22 -2 2 4 -17 32 -43 60 -41 45 -46 54 -32 62 21 12 24 12
16 0z m-1872 -69 c-26 -18 -84 -102 -78 -112 4 -6 -4 -3 -19 6 -23 16 -39 34
-17 21 11 -7 91 86 91 104 0 10 3 10 15 0 9 -7 12 -16 8 -19z m1787 1 c-19
-16 -21 -22 -11 -40 14 -26 36 -28 50 -4 6 9 11 13 11 8 0 -5 -8 -18 -17 -28
-16 -18 -15 -20 5 -40 l22 -22 25 24 c14 13 25 19 25 13 0 -5 -17 -22 -37 -36
-28 -20 -39 -23 -43 -14 -13 32 -74 106 -84 101 -6 -3 5 8 24 25 19 17 39 31
44 31 4 0 -2 -8 -14 -18z m-1742 -89 c-10 -31 -18 -58 -18 -60 0 -11 22 2 59
36 23 21 43 35 46 31 4 -6 -116 -100 -128 -100 -2 0 4 36 15 79 14 54 24 78
33 75 9 -4 8 -18 -7 -61z m1662 2 c6 -8 9 -23 6 -33 -5 -16 2 -24 34 -40 26
-12 35 -22 27 -25 -8 -3 -29 4 -47 14 -44 27 -62 10 -28 -24 l25 -25 -23 -11
c-17 -8 -22 -7 -18 2 2 7 -12 36 -31 66 -23 35 -32 58 -26 64 6 6 15 -2 26
-22 17 -34 38 -37 43 -7 5 22 -17 48 -35 42 -8 -3 -11 -1 -8 4 9 15 41 12 55
-5z m-1499 -37 c21 -11 36 -25 33 -29 -2 -5 -14 1 -26 13 -20 20 -22 20 -35 3
-18 -26 -16 -46 6 -52 13 -3 17 -10 14 -20 -5 -13 -7 -13 -15 1 -5 9 -15 16
-23 16 -16 0 -31 -43 -20 -60 4 -7 -2 -7 -18 1 l-25 11 35 59 c19 32 32 63 28
69 -10 15 3 12 46 -12z m1209 -26 c0 -4 -16 -7 -35 -8 -19 0 -37 -3 -40 -6 -8
-8 20 -81 33 -86 6 -2 20 6 31 17 12 12 21 17 21 12 0 -5 3 -17 7 -27 4 -12 3
-15 -6 -10 -7 4 -23 5 -36 2 l-24 -6 17 -45 c9 -24 23 -46 31 -47 9 -2 -1 -8
-22 -15 -31 -9 -36 -9 -27 2 15 18 -45 182 -68 187 -9 2 10 13 43 25 57 19 75
21 75 5z m169 -18 c34 -28 42 -75 18 -108 -11 -15 -12 -12 -9 21 4 47 -27 93
-63 93 -67 0 -41 -115 30 -133 14 -3 10 -5 -11 -6 -35 -1 -69 29 -79 71 -6 22
-1 33 23 58 37 37 52 37 91 4z m-1286 0 c13 -5 13 -9 -1 -35 -14 -25 -15 -31
-3 -38 24 -15 43 -1 39 29 -3 19 0 26 8 23 25 -9 24 -34 -3 -59 -24 -23 -25
-27 -15 -61 13 -41 12 -45 -7 -34 -7 5 -15 27 -18 50 -3 22 -10 41 -15 41 -11
0 -30 -49 -22 -61 3 -5 -6 -4 -20 2 -21 10 -23 14 -11 23 17 13 56 111 48 120
-8 8 1 8 20 0z m161 -60 c9 -3 16 -11 16 -17 0 -7 -4 -7 -12 1 -7 7 -20 12
-30 12 -25 0 -23 -31 3 -64 18 -23 20 -32 10 -52 -6 -13 -15 -24 -21 -24 -7 0
-8 6 -1 19 8 14 6 25 -9 44 -41 51 -12 103 44 81z m91 -41 c-4 -10 -12 -44
-18 -75 -8 -37 -17 -58 -25 -58 -10 0 -12 7 -8 23 3 12 11 46 17 75 8 33 17
52 27 52 9 0 12 -6 7 -17z m-363 -5 c-9 -9 -15 -9 -24 0 -9 9 -7 12 12 12 19
0 21 -3 12 -12z m476 -3 c30 -5 42 -11 42 -23 0 -11 -3 -13 -8 -6 -4 6 -14 13
-24 17 -13 5 -18 -6 -28 -60 -9 -53 -9 -68 2 -76 9 -6 8 -7 -5 -3 -10 3 -26 6
-35 6 -11 0 -13 3 -5 8 8 5 33 101 33 130 0 2 -11 2 -25 0 -17 -4 -25 -1 -25
9 0 9 7 12 18 9 9 -2 36 -8 60 -11z m562 6 c0 -4 -10 -6 -22 -4 -41 6 -47 -6
-34 -70 7 -32 18 -62 25 -66 9 -6 4 -10 -16 -13 -26 -4 -29 -1 -26 22 2 14 -2
48 -10 77 l-14 52 26 4 c49 8 71 7 71 -2z m-469 -21 c5 0 8 -3 7 -7 -3 -14 13
-53 22 -53 13 0 40 42 34 52 -3 4 2 8 11 8 13 0 9 -10 -16 -44 -24 -34 -30
-52 -27 -75 4 -28 2 -31 -21 -30 -14 0 -20 3 -13 6 20 8 14 65 -13 112 -19 33
-21 42 -9 37 9 -3 20 -6 25 -6z m317 -14 c25 -24 26 -79 2 -109 -44 -56 -124
-24 -124 50 0 67 76 104 122 59z m145 -25 c3 -14 0 -17 -14 -14 -14 4 -15 8
-6 19 15 17 14 17 20 -5z m-834 -24 c12 -15 12 -17 -3 -11 -9 3 -16 13 -16 22
0 8 1 13 3 11 1 -2 9 -12 16 -22z"/>
<path d="M1986 3327 c-22 -16 -18 -66 7 -81 39 -24 72 61 33 86 -15 10 -20 10
-40 -5z"/>
<path d="M993 3163 c-18 -7 -16 -38 2 -53 32 -26 63 18 33 48 -13 13 -16 13
-35 5z"/>
<path d="M1352 1768 l3 -1123 458 -3 457 -2 0 140 0 140 -177 2 -178 3 -3 838
-2 837 180 0 180 0 0 145 0 145 -460 0 -460 0 2 -1122z"/>
<path d="M1208 2530 c-65 -49 -65 -53 3 -114 25 -24 45 -34 50 -29 6 6 9 49 7
97 l-3 88 -57 -42z"/>
<path d="M2026 2511 c-3 -5 32 -30 77 -55 46 -26 112 -70 147 -98 58 -47 64
-50 76 -34 16 23 34 104 34 156 l0 40 -164 0 c-91 0 -167 -4 -170 -9z"/>
<path d="M2388 2432 c-3 -33 -15 -80 -27 -106 l-21 -48 50 -52 c27 -29 70 -83
94 -120 24 -37 47 -63 50 -58 15 25 36 132 36 185 0 52 -4 65 -34 106 -19 25
-59 70 -89 99 l-54 53 -5 -59z"/>
<path d="M2000 2392 c0 -76 1 -78 41 -127 23 -28 58 -75 78 -105 19 -30 37
-57 38 -59 2 -3 22 13 44 35 49 48 103 130 94 143 -19 32 -259 191 -287 191
-5 0 -8 -35 -8 -78z"/>
<path d="M1083 2418 c-58 -61 -113 -137 -113 -156 0 -9 13 -44 28 -76 l28 -59
39 54 c21 30 66 82 99 117 l60 63 -50 50 -50 49 -41 -42z"/>
<path d="M1190 2282 c-31 -31 -75 -85 -98 -119 -42 -61 -42 -63 -26 -88 18
-28 120 -105 138 -105 6 0 23 29 39 63 25 57 27 72 27 185 0 88 -3 122 -12
122 -7 0 -37 -26 -68 -58z"/>
<path d="M2000 2127 l0 -138 39 22 c21 12 51 31 67 44 l28 22 -42 64 c-23 35
-54 78 -67 94 l-25 30 0 -138z"/>
<path d="M2307 2217 c-10 -18 -43 -59 -73 -91 l-55 -58 36 -86 c19 -48 44
-123 55 -166 11 -44 22 -81 24 -84 18 -17 216 224 216 263 0 20 -113 185 -152
222 l-34 33 -17 -33z"/>
<path d="M932 2208 c-18 -23 -70 -163 -83 -226 -12 -60 -12 -61 16 -101 15
-23 31 -41 35 -41 3 0 14 26 24 58 10 31 33 89 52 128 l33 71 -33 62 c-25 48
-35 59 -44 49z"/>
<path d="M2607 2214 c-4 -4 -7 -20 -7 -35 0 -15 -12 -64 -26 -109 l-25 -81 21
-61 c25 -73 50 -187 50 -231 l0 -32 20 30 c11 17 34 68 50 115 36 96 35 113
-11 255 -33 100 -61 159 -72 149z"/>
<path d="M992 1988 c-16 -40 -38 -100 -47 -132 l-17 -59 38 -34 c46 -40 154
-116 158 -111 2 1 9 32 15 68 7 36 24 99 37 140 13 41 22 75 21 75 -32 16
-110 72 -132 95 -16 16 -32 30 -35 30 -4 0 -21 -33 -38 -72z"/>
<path d="M2106 2015 c-16 -13 -47 -31 -68 -41 l-38 -17 0 -190 0 -189 28 7
c35 9 180 80 211 104 l25 19 -21 83 c-27 109 -81 249 -96 249 -7 -1 -25 -11
-41 -25z"/>
<path d="M1253 1983 c-8 -22 -8 -35 -2 -39 16 -9 21 1 17 38 l-3 33 -12 -32z"/>
<path d="M2490 1894 c-19 -30 -68 -88 -110 -128 l-75 -74 0 -181 c0 -99 2
-181 4 -181 2 0 31 22 65 49 72 58 129 117 181 186 l38 50 -7 80 c-5 72 -36
209 -54 241 -5 8 -19 -7 -42 -42z"/>
<path d="M1219 1893 c-20 -53 -48 -163 -54 -215 l-6 -53 53 -21 53 -22 3 161
c2 122 -1 162 -10 169 -21 13 -28 9 -39 -19z"/>
<path d="M825 1829 c-8 -49 2 -185 19 -260 l12 -54 8 75 c4 41 11 99 17 129
12 75 13 74 -20 115 l-29 36 -7 -41z"/>
<path d="M2706 1762 c-11 -26 -33 -72 -51 -102 -28 -49 -32 -68 -38 -155 -4
-55 -15 -136 -26 -180 -11 -44 -18 -82 -16 -83 10 -10 107 214 125 288 18 76
39 280 29 280 -2 0 -13 -21 -23 -48z"/>
<path d="M913 1722 c-4 -20 -8 -89 -8 -151 l0 -115 58 -46 c31 -26 79 -59 106
-74 l49 -26 0 153 0 153 -39 22 c-21 12 -65 44 -98 72 l-60 50 -8 -38z"/>
<path d="M2211 1633 c-24 -14 -80 -41 -125 -59 l-81 -33 -3 -176 c-1 -96 -1
-175 1 -175 17 0 159 55 206 80 l59 32 7 94 c7 95 -1 264 -13 264 -4 0 -27
-12 -51 -27z"/>
<path d="M1151 1463 c1 -71 4 -139 8 -152 5 -18 22 -32 59 -48 l52 -23 0 154
0 153 -56 22 c-31 11 -58 21 -60 21 -2 0 -4 -57 -3 -127z"/>
<path d="M2511 1468 c-41 -44 -102 -100 -135 -125 -34 -26 -65 -49 -69 -53 -4
-4 -17 -50 -27 -102 -11 -52 -26 -114 -34 -136 l-15 -42 66 0 c64 0 67 1 120
47 75 63 98 102 127 213 25 99 51 252 45 268 -2 5 -37 -26 -78 -70z"/>
<path d="M905 1373 c40 -97 150 -247 237 -323 28 -24 49 -38 46 -30 -3 8 -18
67 -34 131 l-28 116 -56 31 c-31 17 -81 49 -110 71 -30 23 -58 41 -62 41 -5 0
-1 -17 7 -37z"/>
<path d="M2195 1229 c-33 -16 -90 -39 -127 -51 l-68 -22 0 -73 0 -73 99 0 99
0 16 48 c16 50 48 193 44 197 -2 1 -30 -11 -63 -26z"/>
<path d="M1174 1198 c11 -65 69 -231 84 -236 9 -3 12 26 12 121 l0 124 -43 17
c-59 22 -60 21 -53 -26z"/>
<path d="M2880 2835 c-14 -17 -7 -45 13 -45 19 0 37 21 37 42 0 22 -32 24 -50
3z"/>
<path d="M320 2336 c0 -22 4 -26 31 -26 26 0 30 3 27 23 -2 16 -11 23 -30 25
-24 3 -28 0 -28 -22z"/>
<path d="M3222 1488 c-7 -7 -12 -22 -12 -33 0 -18 9 -24 55 -34 30 -7 59 -10
65 -6 16 10 11 51 -8 68 -22 20 -83 22 -100 5z"/>
<path d="M1876 304 c-38 -38 -7 -128 42 -122 25 3 27 7 30 52 5 70 -34 108
-72 70z"/>
</g>
</svg>
